<svg width="41" height="36" viewBox="0 0 41 36" fill="none" xmlns="http://www.w3.org/2000/svg">
<g id="icon" filter="url(#filter0_d_1159_298)">
<path fill-rule="evenodd" clip-rule="evenodd" d="M12.8476 4.60212C12.9532 4.45534 13.0705 4.27566 13.22 4.03336C13.2746 3.94484 13.4236 3.69903 13.5345 3.51603L13.5346 3.51591C13.5938 3.41829 13.6421 3.33857 13.6595 3.31014C14.8949 1.28933 15.7929 0.361816 17.4122 0.361816H23.3732C24.9925 0.361816 25.8905 1.28933 27.1259 3.31014C27.1433 3.33855 27.1916 3.41822 27.2507 3.51577L27.2509 3.5161L27.2511 3.51637C27.362 3.69934 27.5108 3.94489 27.5654 4.03336C27.7149 4.27566 27.8322 4.45534 27.9378 4.60212C28.0074 4.69892 28.0682 4.77583 28.1178 4.83255H32.3147C34.7838 4.83255 36.7854 6.83417 36.7854 9.30329V22.7155C36.7854 25.1846 34.7838 27.1862 32.3147 27.1862H8.47074C6.00162 27.1862 4 25.1846 4 22.7155V9.30329C4 6.83417 6.00162 4.83255 8.47074 4.83255H12.6676C12.7172 4.77583 12.778 4.69892 12.8476 4.60212ZM8.4706 7.81279C7.64756 7.81279 6.98035 8.48 6.98035 9.30304V22.7152C6.98035 23.5383 7.64756 24.2055 8.4706 24.2055H32.3145C33.1376 24.2055 33.8048 23.5383 33.8048 22.7152V9.30304C33.8048 8.48 33.1376 7.81279 32.3145 7.81279H27.8438C26.8538 7.81279 26.1861 7.27095 25.5181 6.3423C25.3644 6.12863 25.2121 5.89532 25.0289 5.59842C24.9661 5.49668 24.803 5.22763 24.6912 5.04308L24.5828 4.86447C23.9088 3.76189 23.5023 3.34206 23.3731 3.34206H17.4121C17.2828 3.34206 16.8763 3.76189 16.2023 4.86447L16.0939 5.0431C15.9821 5.22765 15.819 5.49668 15.7562 5.59842C15.573 5.89532 15.4207 6.12863 15.267 6.3423C14.599 7.27095 13.9314 7.81279 12.9413 7.81279H8.4706ZM32.3146 10.7934C32.3146 11.6165 31.6474 12.2837 30.8243 12.2837C30.0013 12.2837 29.3341 11.6165 29.3341 10.7934C29.3341 9.9704 30.0013 9.30319 30.8243 9.30319C31.6474 9.30319 32.3146 9.9704 32.3146 10.7934ZM12.9415 15.264C12.9415 19.3792 16.2775 22.7153 20.3927 22.7153C24.5079 22.7153 27.8439 19.3792 27.8439 15.264C27.8439 11.1488 24.5079 7.8128 20.3927 7.8128C16.2775 7.8128 12.9415 11.1488 12.9415 15.264ZM24.8633 15.2642C24.8633 17.7333 22.8617 19.735 20.3926 19.735C17.9235 19.735 15.9218 17.7333 15.9218 15.2642C15.9218 12.7951 17.9235 10.7935 20.3926 10.7935C22.8617 10.7935 24.8633 12.7951 24.8633 15.2642Z" fill="#F6F5F5"/>
</g>
<defs>
<filter id="filter0_d_1159_298" x="0" y="0.361816" width="40.7854" height="34.8245" filterUnits="userSpaceOnUse" color-interpolation-filters="sRGB">
<feFlood flood-opacity="0" result="BackgroundImageFix"/>
<feColorMatrix in="SourceAlpha" type="matrix" values="0 0 0 0 0 0 0 0 0 0 0 0 0 0 0 0 0 0 127 0" result="hardAlpha"/>
<feOffset dy="4"/>
<feGaussianBlur stdDeviation="2"/>
<feComposite in2="hardAlpha" operator="out"/>
<feColorMatrix type="matrix" values="0 0 0 0 0 0 0 0 0 0 0 0 0 0 0 0 0 0 0.5 0"/>
<feBlend mode="normal" in2="BackgroundImageFix" result="effect1_dropShadow_1159_298"/>
<feBlend mode="normal" in="SourceGraphic" in2="effect1_dropShadow_1159_298" result="shape"/>
</filter>
</defs>
</svg>
